<?xml version="1.0" standalone="no"?>
<!DOCTYPE svg PUBLIC "-//W3C//DTD SVG 20010904//EN"
 "http://www.w3.org/TR/2001/REC-SVG-20010904/DTD/svg10.dtd">
<svg version="1.0" xmlns="http://www.w3.org/2000/svg"
 width="400.000000pt" height="400.000000pt" viewBox="0 0 400.000000 400.000000"
 preserveAspectRatio="xMidYMid meet">
<metadata>
Created by potrace 1.11, written by Peter Selinger 2001-2013
</metadata>
<g transform="translate(0.000000,400.000000) scale(0.100000,-0.100000)"
fill="#000000" stroke="none">
<path d="M1753 3889 c-112 -17 -289 -66 -399 -113 -433 -183 -772 -546 -927
-993 -255 -730 19 -1552 656 -1974 49 -32 94 -60 100 -62 7 -3 -29 -43 -78
-90 -153 -143 -285 -325 -285 -393 0 -17 8 -38 18 -46 46 -42 344 -95 717
-130 171 -16 694 -15 865 1 350 32 628 79 701 116 56 29 42 88 -53 227 -61 89
-191 231 -256 280 l-34 25 115 76 c324 216 576 561 681 932 51 181 61 256 61
475 0 174 -4 222 -23 318 -93 461 -348 843 -735 1102 -174 116 -428 213 -639
244 -115 17 -380 20 -485 5z m-190 -321 c12 -6 40 -26 61 -45 38 -32 43 -33
123 -33 97 0 101 -5 54 -79 -16 -25 -32 -67 -35 -93 -4 -26 -11 -50 -16 -53
-5 -3 -28 -1 -50 6 -32 10 -55 9 -111 0 -97 -18 -104 -9 -60 72 l34 62 -20 75
c-18 69 -20 100 -7 100 3 0 15 -5 27 -12z m-203 -178 c0 -5 -4 -10 -10 -10 -5
0 -10 5 -10 10 0 6 5 10 10 10 6 0 10 -4 10 -10z m1264 -148 c3 -10 13 -44 21
-76 9 -33 32 -86 51 -118 20 -32 34 -65 32 -74 -2 -10 -29 -26 -66 -39 -35
-13 -89 -41 -122 -64 -32 -23 -65 -41 -73 -41 -10 0 -24 27 -41 78 -15 43 -49
114 -76 157 -28 44 -50 82 -50 86 0 15 30 28 104 43 43 9 97 27 120 40 50 29
92 33 100 8z m-806 -869 c52 -5 54 -6 47 -32 -4 -14 -9 -44 -12 -66 -7 -51
-15 -60 -44 -44 -13 7 -41 12 -62 10 -53 -3 -59 4 -42 46 8 19 15 51 15 70 0
32 2 35 23 28 12 -4 46 -9 75 -12z m802 -417 c0 -3 -4 -8 -10 -11 -5 -3 -10
-1 -10 4 0 6 5 11 10 11 6 0 10 -2 10 -4z m-345 -166 c3 -5 1 -10 -4 -10 -6 0
-11 5 -11 10 0 6 2 10 4 10 3 0 8 -4 11 -10z m985 0 c0 -5 -4 -10 -10 -10 -5
0 -10 5 -10 10 0 6 5 10 10 10 6 0 10 -4 10 -10z m-1230 -56 c0 -8 -5 -12 -10
-9 -6 4 -8 11 -5 16 9 14 15 11 15 -7z m810 -129 c0 -8 -4 -15 -9 -15 -13 0
-22 16 -14 24 11 11 23 6 23 -9z m-70 -21 c0 -17 -22 -14 -28 4 -2 7 3 12 12
12 9 0 16 -7 16 -16z m-300 -113 c3 -3 19 -7 35 -7 17 -1 39 -3 50 -4 11 -1
30 1 42 5 18 6 25 2 33 -19 5 -14 16 -26 25 -26 8 0 15 -7 15 -15 0 -8 8 -31
17 -50 15 -31 21 -36 43 -31 14 4 34 8 45 11 11 2 26 1 33 -4 18 -11 -4 -64
-43 -104 -38 -40 -55 -88 -55 -156 0 -95 -60 -181 -153 -221 -123 -53 -459
-82 -697 -61 -208 19 -340 65 -398 138 -54 70 -74 122 -78 205 -2 42 -4 80 -5
85 -5 28 6 49 47 90 72 71 119 87 249 83 22 0 64 6 93 13 29 8 55 10 58 5 3
-4 11 -5 17 -1 17 11 131 23 307 32 85 4 169 12 185 18 83 31 118 35 135 14z
m-1070 -828 c80 -30 148 -60 152 -67 11 -17 9 -375 -2 -396 -16 -30 -60 -38
-211 -39 -116 -1 -167 3 -260 23 -192 39 -235 68 -218 144 19 87 247 362 324
392 28 11 50 5 215 -57z m1470 -20 c78 -80 199 -252 219 -312 18 -56 -1 -74
-126 -114 -169 -55 -262 -71 -403 -71 -85 0 -138 5 -165 14 l-40 15 -3 202
c-2 201 -2 202 21 217 51 34 322 125 372 126 49 0 51 -1 125 -77z"/>
</g>
</svg>
